<svg viewBox="0 0 330 200" xmlns="http://www.w3.org/2000/svg"><g><g><g><g><g><line x1="50" y1="174.78995420177182" x2="45" y2="174.78995420177182" style="visibility: inherit;" fill="rgb(0, 0, 0)" stroke="rgb(204, 204, 204)" stroke-width="1px"></line><line x1="50" y1="155.0121764239939" x2="45" y2="155.0121764239939" style="visibility: inherit;" fill="rgb(0, 0, 0)" stroke="rgb(204, 204, 204)" stroke-width="1px"></line><line x1="50" y1="135.23439864621596" x2="45" y2="135.23439864621596" style="visibility: inherit;" fill="rgb(0, 0, 0)" stroke="rgb(204, 204, 204)" stroke-width="1px"></line><line x1="50" y1="115.45662086843807" x2="45" y2="115.45662086843807" style="visibility: inherit;" fill="rgb(0, 0, 0)" stroke="rgb(204, 204, 204)" stroke-width="1px"></line><line x1="50" y1="95.67884309066012" x2="45" y2="95.67884309066012" style="visibility: inherit;" fill="rgb(0, 0, 0)" stroke="rgb(204, 204, 204)" stroke-width="1px"></line><line x1="50" y1="75.90106531288222" x2="45" y2="75.90106531288222" style="visibility: inherit;" fill="rgb(0, 0, 0)" stroke="rgb(204, 204, 204)" stroke-width="1px"></line><line x1="50" y1="56.123287535104296" x2="45" y2="56.123287535104296" style="visibility: inherit;" fill="rgb(0, 0, 0)" stroke="rgb(204, 204, 204)" stroke-width="1px"></line><line x1="50" y1="36.345509757326376" x2="45" y2="36.345509757326376" style="visibility: inherit;" fill="rgb(0, 0, 0)" stroke="rgb(204, 204, 204)" stroke-width="1px"></line><line x1="50" y1="16.567731979548427" x2="45" y2="16.567731979548427" style="visibility: inherit;" fill="rgb(0, 0, 0)" stroke="rgb(204, 204, 204)" stroke-width="1px"></line></g><g transform="translate(40, 0)"><text x="0" y="174.78995420177182" dx="0em" dy="0.3em" style="text-anchor: end; visibility: hidden; font-family: Roboto, sans-serif; font-size: 12px; font-weight: 200;" fill="rgb(50, 49, 63)" stroke="none" stroke-width="1px">-1.5</text><text x="0" y="155.0121764239939" dx="0em" dy="0.3em" style="text-anchor: end; visibility: inherit; font-family: Roboto, sans-serif; font-size: 12px; font-weight: 200;" fill="rgb(50, 49, 63)" stroke="none" stroke-width="1px">-1</text><text x="0" y="135.23439864621596" dx="0em" dy="0.3em" style="text-anchor: end; visibility: hidden; font-family: Roboto, sans-serif; font-size: 12px; font-weight: 200;" fill="rgb(50, 49, 63)" stroke="none" stroke-width="1px">-0.5</text><text x="0" y="115.45662086843807" dx="0em" dy="0.3em" style="text-anchor: end; visibility: inherit; font-family: Roboto, sans-serif; font-size: 12px; font-weight: 200;" fill="rgb(50, 49, 63)" stroke="none" stroke-width="1px">0</text><text x="0" y="95.67884309066012" dx="0em" dy="0.3em" style="text-anchor: end; visibility: hidden; font-family: Roboto, sans-serif; font-size: 12px; font-weight: 200;" fill="rgb(50, 49, 63)" stroke="none" stroke-width="1px">0.5</text><text x="0" y="75.90106531288222" dx="0em" dy="0.3em" style="text-anchor: end; visibility: inherit; font-family: Roboto, sans-serif; font-size: 12px; font-weight: 200;" fill="rgb(50, 49, 63)" stroke="none" stroke-width="1px">1</text><text x="0" y="56.123287535104296" dx="0em" dy="0.3em" style="text-anchor: end; visibility: hidden; font-family: Roboto, sans-serif; font-size: 12px; font-weight: 200;" fill="rgb(50, 49, 63)" stroke="none" stroke-width="1px">1.5</text><text x="0" y="36.345509757326376" dx="0em" dy="0.3em" style="text-anchor: end; visibility: inherit; font-family: Roboto, sans-serif; font-size: 12px; font-weight: 200;" fill="rgb(50, 49, 63)" stroke="none" stroke-width="1px">2</text><text x="0" y="16.567731979548427" dx="0em" dy="0.3em" style="text-anchor: end; visibility: hidden; font-family: Roboto, sans-serif; font-size: 12px; font-weight: 200;" fill="rgb(50, 49, 63)" stroke="none" stroke-width="1px">2.5</text></g><line x1="50" y1="0" x2="50" y2="178" fill="rgb(0, 0, 0)" stroke="rgb(204, 204, 204)" stroke-width="1px"></line></g></g><g transform="translate(50, 0)" clip-path="url(#clip_0)"><clipPath id="clip_0"><rect width="280" height="178"></rect></clipPath><g><g><g><line x1="16.568908602543964" y1="0" x2="16.568908602543964" y2="178" fill="rgb(0, 0, 0)" stroke="rgb(60, 60, 60)" stroke-width="1px" opacity="0.25"></line><line x1="39.90224193587731" y1="0" x2="39.90224193587731" y2="178" fill="rgb(0, 0, 0)" stroke="rgb(60, 60, 60)" stroke-width="1px" opacity="0.25"></line><line x1="63.23557526921066" y1="0" x2="63.23557526921066" y2="178" fill="rgb(0, 0, 0)" stroke="rgb(60, 60, 60)" stroke-width="1px" opacity="0.25"></line><line x1="86.56890860254403" y1="0" x2="86.56890860254403" y2="178" fill="rgb(0, 0, 0)" stroke="rgb(60, 60, 60)" stroke-width="1px" opacity="0.25"></line><line x1="109.90224193587737" y1="0" x2="109.90224193587737" y2="178" fill="rgb(0, 0, 0)" stroke="rgb(60, 60, 60)" stroke-width="1px" opacity="0.25"></line><line x1="133.23557526921073" y1="0" x2="133.23557526921073" y2="178" fill="rgb(0, 0, 0)" stroke="rgb(60, 60, 60)" stroke-width="1px" opacity="0.25"></line><line x1="156.56890860254407" y1="0" x2="156.56890860254407" y2="178" fill="rgb(0, 0, 0)" stroke="rgb(60, 60, 60)" stroke-width="1px" opacity="0.25"></line><line x1="179.9022419358774" y1="0" x2="179.9022419358774" y2="178" fill="rgb(0, 0, 0)" stroke="rgb(60, 60, 60)" stroke-width="1px" opacity="0.25"></line><line x1="203.23557526921078" y1="0" x2="203.23557526921078" y2="178" fill="rgb(0, 0, 0)" stroke="rgb(60, 60, 60)" stroke-width="1px" opacity="0.25"></line><line x1="226.56890860254413" y1="0" x2="226.56890860254413" y2="178" fill="rgb(0, 0, 0)" stroke="rgb(60, 60, 60)" stroke-width="1px" opacity="0.25"></line><line x1="249.90224193587747" y1="0" x2="249.90224193587747" y2="178" fill="rgb(0, 0, 0)" stroke="rgb(60, 60, 60)" stroke-width="1px" opacity="0.25"></line><line x1="273.2355752692108" y1="0" x2="273.2355752692108" y2="178" fill="rgb(0, 0, 0)" stroke="rgb(60, 60, 60)" stroke-width="1px" opacity="0.25"></line></g><g><line x1="0" y1="174.78995420177182" x2="280" y2="174.78995420177182" fill="rgb(0, 0, 0)" stroke="rgb(60, 60, 60)" stroke-width="1px" opacity="0.25"></line><line x1="0" y1="155.0121764239939" x2="280" y2="155.0121764239939" fill="rgb(0, 0, 0)" stroke="rgb(60, 60, 60)" stroke-width="1px" opacity="0.25"></line><line x1="0" y1="135.23439864621596" x2="280" y2="135.23439864621596" fill="rgb(0, 0, 0)" stroke="rgb(60, 60, 60)" stroke-width="1px" opacity="0.25"></line><line x1="0" y1="115.45662086843807" x2="280" y2="115.45662086843807" fill="rgb(0, 0, 0)" stroke="rgb(60, 60, 60)" stroke-width="1px" opacity="0.25"></line><line x1="0" y1="95.67884309066012" x2="280" y2="95.67884309066012" fill="rgb(0, 0, 0)" stroke="rgb(60, 60, 60)" stroke-width="1px" opacity="0.25"></line><line x1="0" y1="75.90106531288222" x2="280" y2="75.90106531288222" fill="rgb(0, 0, 0)" stroke="rgb(60, 60, 60)" stroke-width="1px" opacity="0.25"></line><line x1="0" y1="56.123287535104296" x2="280" y2="56.123287535104296" fill="rgb(0, 0, 0)" stroke="rgb(60, 60, 60)" stroke-width="1px" opacity="0.25"></line><line x1="0" y1="36.345509757326376" x2="280" y2="36.345509757326376" fill="rgb(0, 0, 0)" stroke="rgb(60, 60, 60)" stroke-width="1px" opacity="0.25"></line><line x1="0" y1="16.567731979548427" x2="280" y2="16.567731979548427" fill="rgb(0, 0, 0)" stroke="rgb(60, 60, 60)" stroke-width="1px" opacity="0.25"></line></g></g></g><g><g><line x1="0" y1="115.45662086843807" x2="280" y2="115.45662086843807" fill="rgb(0, 0, 0)" stroke="rgb(153, 153, 153)" stroke-width="1.5px"></line></g></g><g><g><line x1="16.568908602543964" y1="0" x2="16.568908602543964" y2="178" fill="rgb(0, 0, 0)" stroke="rgb(153, 153, 153)" stroke-width="1.5px"></line></g></g><g><g><g><g><g><path style="fill: none;" stroke="rgb(51, 187, 238)" stroke-width="2px" d="M22.16890860254397,136.78257424605596L27.76890860254397,138.61132319410018L33.368908602543975,139.88935588769823L38.96890860254398,137.4693257003941L44.568908602543985,138.44037785292898L50.16890860254399,138.49733586216968L55.768908602543995,141.02577101291592L61.368908602544,138.59213238216344L66.968908602544,137.5559726890492L72.56890860254401,136.24835599404148L78.16890860254402,136.2045163914114L83.76890860254402,137.5448281041076L89.36890860254402,135.33921895104854L94.96890860254403,127.39119386176729L100.56890860254404,128.77673565442802L106.16890860254404,132.8686378842753L111.76890860254403,129.71117843646263L117.36890860254404,132.20139262298954L122.96890860254405,134.84252409667337L128.56890860254404,136.72809336027794L134.16890860254404,131.76307939638207L139.76890860254406,131.33569830544755L145.36890860254405,129.73546947429966L150.96890860254408,133.36350924700162L156.56890860254407,135.87400006275232L162.16890860254406,132.51568104890242L167.7689086025441,128.7446136716759L173.36890860254408,132.22298008143494L178.9689086025441,130.75718831472804L184.5689086025441,122.60143214228317L190.1689086025441,113.31124664479002L195.76890860254412,122.44721365367242L201.3689086025441,120.73668361376096L206.9689086025441,125.88333761329335L212.56890860254413,128.82913686898982L218.16890860254412,125.60347417871661L223.76890860254412,108.41756603198971L229.36890860254414,101.31423844212233L234.96890860254413,112.71344445017249L240.56890860254416,107.52296874534086L246.16890860254415,111.15815439504883L251.76890860254414,105.79512188307552L257.36890860254414,104.29401496412396L262.96890860254416,111.32028276518484L268.5689086025442,97.70004969494724L274.16890860254415,80.90849157119409L279.7689086025442,-0.0157220517501675" fill="none"></path></g></g></g></g><g opacity="0.2"><g><g><g><path style="fill: none;" stroke="rgb(51, 187, 238)" stroke-width="2px" d="M22.16890860254397,136.78257424605596L27.76890860254397,139.70857256292675L33.368908602543975,141.1162672735523L38.96890860254398,134.62337020012444L44.568908602543985,139.70818354327852L50.16890860254399,138.5761292938329L55.768908602543995,144.64147373344545L61.368908602544,135.04386389559545L66.968908602544,136.0278384053645L72.56890860254401,134.30669759683514L78.16890860254402,136.13915460943554L83.76890860254402,139.54800175599962L89.36890860254402,132.0380069180267L94.96890860254403,115.4847272364038L100.56890860254404,130.85341969105306L106.16890860254404,139.00360530256603L111.76890860254403,124.97632539576323L117.36890860254404,135.93608163766768L122.96890860254405,138.80381895740206L128.56890860254404,139.55627490718538L134.16890860254404,124.31583074370388L139.76890860254406,130.6946407322026L145.36890860254405,127.33515782130459L150.96890860254408,138.80552592846462L156.56890860254407,139.63971844288417L162.16890860254406,127.47821684982411L167.7689086025441,123.08802225496402L173.36890860254408,137.4405243559616L178.9689086025441,128.55850201486913L184.5689086025441,110.36780239117829L190.1689086025441,99.37597147927694L195.76890860254412,136.15116234924434L201.3689086025441,118.1708887580967L206.9689086025441,133.60331824394765L212.56890860254413,133.24783562593365L218.16890860254412,120.76498022648389L223.76890860254412,82.63870407779349L229.36890860254414,90.65924712326135L234.96890860254413,129.81225339875652L240.56890860254416,99.73725520543934L246.16890860254415,116.6109328623218L251.76890860254414,97.75057312156768L257.36890860254414,102.0423545867802L262.96890860254416,121.85968446373306L268.5689086025442,77.26970009313024L274.16890860254415,55.72115438818249L279.7689086025442,-121.40204247859603" fill="none"></path></g></g></g></g></g></g><g transform="translate(50, 178)" clip-path="url(#clip_1)"><clipPath id="clip_1"><rect width="280" height="22"></rect></clipPath><g><g><line x1="16.568908602543964" y1="0" x2="16.568908602543964" y2="5" style="visibility: inherit;" fill="rgb(0, 0, 0)" stroke="rgb(204, 204, 204)" stroke-width="1px"></line><line x1="39.90224193587731" y1="0" x2="39.90224193587731" y2="5" style="visibility: inherit;" fill="rgb(0, 0, 0)" stroke="rgb(204, 204, 204)" stroke-width="1px"></line><line x1="63.23557526921066" y1="0" x2="63.23557526921066" y2="5" style="visibility: inherit;" fill="rgb(0, 0, 0)" stroke="rgb(204, 204, 204)" stroke-width="1px"></line><line x1="86.56890860254403" y1="0" x2="86.56890860254403" y2="5" style="visibility: inherit;" fill="rgb(0, 0, 0)" stroke="rgb(204, 204, 204)" stroke-width="1px"></line><line x1="109.90224193587737" y1="0" x2="109.90224193587737" y2="5" style="visibility: inherit;" fill="rgb(0, 0, 0)" stroke="rgb(204, 204, 204)" stroke-width="1px"></line><line x1="133.23557526921073" y1="0" x2="133.23557526921073" y2="5" style="visibility: inherit;" fill="rgb(0, 0, 0)" stroke="rgb(204, 204, 204)" stroke-width="1px"></line><line x1="156.56890860254407" y1="0" x2="156.56890860254407" y2="5" style="visibility: inherit;" fill="rgb(0, 0, 0)" stroke="rgb(204, 204, 204)" stroke-width="1px"></line><line x1="179.9022419358774" y1="0" x2="179.9022419358774" y2="5" style="visibility: inherit;" fill="rgb(0, 0, 0)" stroke="rgb(204, 204, 204)" stroke-width="1px"></line><line x1="203.23557526921078" y1="0" x2="203.23557526921078" y2="5" style="visibility: inherit;" fill="rgb(0, 0, 0)" stroke="rgb(204, 204, 204)" stroke-width="1px"></line><line x1="226.56890860254413" y1="0" x2="226.56890860254413" y2="5" style="visibility: inherit;" fill="rgb(0, 0, 0)" stroke="rgb(204, 204, 204)" stroke-width="1px"></line><line x1="249.90224193587747" y1="0" x2="249.90224193587747" y2="5" style="visibility: inherit;" fill="rgb(0, 0, 0)" stroke="rgb(204, 204, 204)" stroke-width="1px"></line><line x1="273.2355752692108" y1="0" x2="273.2355752692108" y2="5" style="visibility: inherit;" fill="rgb(0, 0, 0)" stroke="rgb(204, 204, 204)" stroke-width="1px"></line></g><g transform="translate(0, 8)"><text x="16.568908602543964" y="0" dx="0em" dy="0.95em" style="text-anchor: middle; visibility: inherit; font-family: Roboto, sans-serif; font-size: 12px; font-weight: 200;" fill="rgb(50, 49, 63)" stroke="none" stroke-width="1px">0</text><text x="39.90224193587731" y="0" dx="0em" dy="0.95em" style="text-anchor: middle; visibility: hidden; font-family: Roboto, sans-serif; font-size: 12px; font-weight: 200;" fill="rgb(50, 49, 63)" stroke="none" stroke-width="1px">50k</text><text x="63.23557526921066" y="0" dx="0em" dy="0.95em" style="text-anchor: middle; visibility: inherit; font-family: Roboto, sans-serif; font-size: 12px; font-weight: 200;" fill="rgb(50, 49, 63)" stroke="none" stroke-width="1px">100k</text><text x="86.56890860254403" y="0" dx="0em" dy="0.95em" style="text-anchor: middle; visibility: hidden; font-family: Roboto, sans-serif; font-size: 12px; font-weight: 200;" fill="rgb(50, 49, 63)" stroke="none" stroke-width="1px">150k</text><text x="109.90224193587737" y="0" dx="0em" dy="0.95em" style="text-anchor: middle; visibility: inherit; font-family: Roboto, sans-serif; font-size: 12px; font-weight: 200;" fill="rgb(50, 49, 63)" stroke="none" stroke-width="1px">200k</text><text x="133.23557526921073" y="0" dx="0em" dy="0.95em" style="text-anchor: middle; visibility: hidden; font-family: Roboto, sans-serif; font-size: 12px; font-weight: 200;" fill="rgb(50, 49, 63)" stroke="none" stroke-width="1px">250k</text><text x="156.56890860254407" y="0" dx="0em" dy="0.95em" style="text-anchor: middle; visibility: inherit; font-family: Roboto, sans-serif; font-size: 12px; font-weight: 200;" fill="rgb(50, 49, 63)" stroke="none" stroke-width="1px">300k</text><text x="179.9022419358774" y="0" dx="0em" dy="0.95em" style="text-anchor: middle; visibility: hidden; font-family: Roboto, sans-serif; font-size: 12px; font-weight: 200;" fill="rgb(50, 49, 63)" stroke="none" stroke-width="1px">350k</text><text x="203.23557526921078" y="0" dx="0em" dy="0.95em" style="text-anchor: middle; visibility: inherit; font-family: Roboto, sans-serif; font-size: 12px; font-weight: 200;" fill="rgb(50, 49, 63)" stroke="none" stroke-width="1px">400k</text><text x="226.56890860254413" y="0" dx="0em" dy="0.95em" style="text-anchor: middle; visibility: hidden; font-family: Roboto, sans-serif; font-size: 12px; font-weight: 200;" fill="rgb(50, 49, 63)" stroke="none" stroke-width="1px">450k</text><text x="249.90224193587747" y="0" dx="0em" dy="0.95em" style="text-anchor: middle; visibility: inherit; font-family: Roboto, sans-serif; font-size: 12px; font-weight: 200;" fill="rgb(50, 49, 63)" stroke="none" stroke-width="1px">500k</text><text x="273.2355752692108" y="0" dx="0em" dy="0.95em" style="text-anchor: middle; visibility: hidden; font-family: Roboto, sans-serif; font-size: 12px; font-weight: 200;" fill="rgb(50, 49, 63)" stroke="none" stroke-width="1px">550k</text></g><line x1="0" y1="0" x2="280" y2="0" fill="rgb(0, 0, 0)" stroke="rgb(204, 204, 204)" stroke-width="1px"></line></g></g></g></g></svg>