<svg viewBox="0 0 1496 400" xmlns="http://www.w3.org/2000/svg"><g><g><g><g><g><line x1="61.953125" y1="378" x2="56.953125" y2="378" style="visibility: inherit;" fill="rgb(0, 0, 0)" stroke="rgb(204, 204, 204)" stroke-width="1px"></line><line x1="61.953125" y1="336" x2="56.953125" y2="336" style="visibility: inherit;" fill="rgb(0, 0, 0)" stroke="rgb(204, 204, 204)" stroke-width="1px"></line><line x1="61.953125" y1="294" x2="56.953125" y2="294" style="visibility: inherit;" fill="rgb(0, 0, 0)" stroke="rgb(204, 204, 204)" stroke-width="1px"></line><line x1="61.953125" y1="252.00000000000003" x2="56.953125" y2="252.00000000000003" style="visibility: inherit;" fill="rgb(0, 0, 0)" stroke="rgb(204, 204, 204)" stroke-width="1px"></line><line x1="61.953125" y1="210" x2="56.953125" y2="210" style="visibility: inherit;" fill="rgb(0, 0, 0)" stroke="rgb(204, 204, 204)" stroke-width="1px"></line><line x1="61.953125" y1="168" x2="56.953125" y2="168" style="visibility: inherit;" fill="rgb(0, 0, 0)" stroke="rgb(204, 204, 204)" stroke-width="1px"></line><line x1="61.953125" y1="125.99999999999997" x2="56.953125" y2="125.99999999999997" style="visibility: inherit;" fill="rgb(0, 0, 0)" stroke="rgb(204, 204, 204)" stroke-width="1px"></line><line x1="61.953125" y1="84.00000000000004" x2="56.953125" y2="84.00000000000004" style="visibility: inherit;" fill="rgb(0, 0, 0)" stroke="rgb(204, 204, 204)" stroke-width="1px"></line><line x1="61.953125" y1="41.99999999999998" x2="56.953125" y2="41.99999999999998" style="visibility: inherit;" fill="rgb(0, 0, 0)" stroke="rgb(204, 204, 204)" stroke-width="1px"></line><line x1="61.953125" y1="0" x2="56.953125" y2="0" style="visibility: inherit;" fill="rgb(0, 0, 0)" stroke="rgb(204, 204, 204)" stroke-width="1px"></line></g><g transform="translate(51.953125, 0)"><text x="0" y="378" dx="0em" dy="0.3em" style="text-anchor: end; visibility: hidden; font-family: Roboto, sans-serif; font-size: 12px; font-weight: 200;" fill="rgb(50, 49, 63)" stroke="none" stroke-width="1px">-0.01</text><text x="0" y="336" dx="0em" dy="0.3em" style="text-anchor: end; visibility: inherit; font-family: Roboto, sans-serif; font-size: 12px; font-weight: 200;" fill="rgb(50, 49, 63)" stroke="none" stroke-width="1px">0</text><text x="0" y="294" dx="0em" dy="0.3em" style="text-anchor: end; visibility: inherit; font-family: Roboto, sans-serif; font-size: 12px; font-weight: 200;" fill="rgb(50, 49, 63)" stroke="none" stroke-width="1px">0.01</text><text x="0" y="252.00000000000003" dx="0em" dy="0.3em" style="text-anchor: end; visibility: inherit; font-family: Roboto, sans-serif; font-size: 12px; font-weight: 200;" fill="rgb(50, 49, 63)" stroke="none" stroke-width="1px">0.02</text><text x="0" y="210" dx="0em" dy="0.3em" style="text-anchor: end; visibility: inherit; font-family: Roboto, sans-serif; font-size: 12px; font-weight: 200;" fill="rgb(50, 49, 63)" stroke="none" stroke-width="1px">0.03</text><text x="0" y="168" dx="0em" dy="0.3em" style="text-anchor: end; visibility: inherit; font-family: Roboto, sans-serif; font-size: 12px; font-weight: 200;" fill="rgb(50, 49, 63)" stroke="none" stroke-width="1px">0.04</text><text x="0" y="125.99999999999997" dx="0em" dy="0.3em" style="text-anchor: end; visibility: inherit; font-family: Roboto, sans-serif; font-size: 12px; font-weight: 200;" fill="rgb(50, 49, 63)" stroke="none" stroke-width="1px">0.05</text><text x="0" y="84.00000000000004" dx="0em" dy="0.3em" style="text-anchor: end; visibility: inherit; font-family: Roboto, sans-serif; font-size: 12px; font-weight: 200;" fill="rgb(50, 49, 63)" stroke="none" stroke-width="1px">0.06</text><text x="0" y="41.99999999999998" dx="0em" dy="0.3em" style="text-anchor: end; visibility: inherit; font-family: Roboto, sans-serif; font-size: 12px; font-weight: 200;" fill="rgb(50, 49, 63)" stroke="none" stroke-width="1px">0.07</text><text x="0" y="0" dx="0em" dy="0.3em" style="text-anchor: end; visibility: hidden; font-family: Roboto, sans-serif; font-size: 12px; font-weight: 200;" fill="rgb(50, 49, 63)" stroke="none" stroke-width="1px">0.08</text></g><line x1="61.953125" y1="0" x2="61.953125" y2="378" fill="rgb(0, 0, 0)" stroke="rgb(204, 204, 204)" stroke-width="1px"></line></g></g><g transform="translate(61, 0)" clip-path="url(#clip_0)"><clipPath id="clip_0"><rect width="1434" height="378"></rect></clipPath><g><g><g><line x1="0" y1="0" x2="0" y2="378" fill="rgb(0, 0, 0)" stroke="rgb(60, 60, 60)" stroke-width="1px" opacity="0.25"></line><line x1="119.50390625" y1="0" x2="119.50390625" y2="378" fill="rgb(0, 0, 0)" stroke="rgb(60, 60, 60)" stroke-width="1px" opacity="0.25"></line><line x1="239.0078125" y1="0" x2="239.0078125" y2="378" fill="rgb(0, 0, 0)" stroke="rgb(60, 60, 60)" stroke-width="1px" opacity="0.25"></line><line x1="358.51171875" y1="0" x2="358.51171875" y2="378" fill="rgb(0, 0, 0)" stroke="rgb(60, 60, 60)" stroke-width="1px" opacity="0.25"></line><line x1="478.015625" y1="0" x2="478.015625" y2="378" fill="rgb(0, 0, 0)" stroke="rgb(60, 60, 60)" stroke-width="1px" opacity="0.25"></line><line x1="597.51953125" y1="0" x2="597.51953125" y2="378" fill="rgb(0, 0, 0)" stroke="rgb(60, 60, 60)" stroke-width="1px" opacity="0.25"></line><line x1="717.0234375" y1="0" x2="717.0234375" y2="378" fill="rgb(0, 0, 0)" stroke="rgb(60, 60, 60)" stroke-width="1px" opacity="0.25"></line><line x1="836.52734375" y1="0" x2="836.52734375" y2="378" fill="rgb(0, 0, 0)" stroke="rgb(60, 60, 60)" stroke-width="1px" opacity="0.25"></line><line x1="956.03125" y1="0" x2="956.03125" y2="378" fill="rgb(0, 0, 0)" stroke="rgb(60, 60, 60)" stroke-width="1px" opacity="0.25"></line><line x1="1075.53515625" y1="0" x2="1075.53515625" y2="378" fill="rgb(0, 0, 0)" stroke="rgb(60, 60, 60)" stroke-width="1px" opacity="0.25"></line><line x1="1195.0390625" y1="0" x2="1195.0390625" y2="378" fill="rgb(0, 0, 0)" stroke="rgb(60, 60, 60)" stroke-width="1px" opacity="0.25"></line><line x1="1314.54296875" y1="0" x2="1314.54296875" y2="378" fill="rgb(0, 0, 0)" stroke="rgb(60, 60, 60)" stroke-width="1px" opacity="0.25"></line><line x1="1434.046875" y1="0" x2="1434.046875" y2="378" fill="rgb(0, 0, 0)" stroke="rgb(60, 60, 60)" stroke-width="1px" opacity="0.25"></line></g><g><line x1="0" y1="378" x2="1434.046875" y2="378" fill="rgb(0, 0, 0)" stroke="rgb(60, 60, 60)" stroke-width="1px" opacity="0.25"></line><line x1="0" y1="336" x2="1434.046875" y2="336" fill="rgb(0, 0, 0)" stroke="rgb(60, 60, 60)" stroke-width="1px" opacity="0.25"></line><line x1="0" y1="294" x2="1434.046875" y2="294" fill="rgb(0, 0, 0)" stroke="rgb(60, 60, 60)" stroke-width="1px" opacity="0.25"></line><line x1="0" y1="252.00000000000003" x2="1434.046875" y2="252.00000000000003" fill="rgb(0, 0, 0)" stroke="rgb(60, 60, 60)" stroke-width="1px" opacity="0.25"></line><line x1="0" y1="210" x2="1434.046875" y2="210" fill="rgb(0, 0, 0)" stroke="rgb(60, 60, 60)" stroke-width="1px" opacity="0.25"></line><line x1="0" y1="168" x2="1434.046875" y2="168" fill="rgb(0, 0, 0)" stroke="rgb(60, 60, 60)" stroke-width="1px" opacity="0.25"></line><line x1="0" y1="125.99999999999997" x2="1434.046875" y2="125.99999999999997" fill="rgb(0, 0, 0)" stroke="rgb(60, 60, 60)" stroke-width="1px" opacity="0.25"></line><line x1="0" y1="84.00000000000004" x2="1434.046875" y2="84.00000000000004" fill="rgb(0, 0, 0)" stroke="rgb(60, 60, 60)" stroke-width="1px" opacity="0.25"></line><line x1="0" y1="41.99999999999998" x2="1434.046875" y2="41.99999999999998" fill="rgb(0, 0, 0)" stroke="rgb(60, 60, 60)" stroke-width="1px" opacity="0.25"></line><line x1="0" y1="0" x2="1434.046875" y2="0" fill="rgb(0, 0, 0)" stroke="rgb(60, 60, 60)" stroke-width="1px" opacity="0.25"></line></g></g></g><g><g><line x1="0" y1="336" x2="1434.046875" y2="336" fill="rgb(0, 0, 0)" stroke="rgb(153, 153, 153)" stroke-width="1.5px"></line></g></g><g><g><line x1="119.50390625" y1="0" x2="119.50390625" y2="378" fill="rgb(0, 0, 0)" stroke="rgb(153, 153, 153)" stroke-width="1.5px"></line></g></g><g><g><g><g><g><path stroke="rgb(51, 187, 238)" stroke-width="2px" d="M133.844375,52.99347048997882L141.014609375,46.68767253309484L148.18484375,41.30707942587988L155.355078125,40.880437326124486L162.52531249999998,61.564396866363914L169.695546875,71.04995428571914L176.86578125,91.65145482546868L184.036015625,96.15993774155974L191.20625,103.47933802732051L198.376484375,104.37321954665391L205.54671875,116.82023766518631L212.716953125,137.35572097739157L219.88718749999998,137.2847903345242L227.057421875,137.48030659497078L234.22765625,146.04365743329296L241.397890625,161.04777945149524L248.568125,161.6447833235095L255.73835937500002,167.88035048224452L262.90859374999997,172.56010329708792L270.078828125,179.1356700337936L277.2490625,191.76401620064064L284.419296875,198.12170844257346L291.58953125,200.76989170124617L298.759765625,213.85213607658332L305.93,225.18831616790797L313.100234375,236.489435222171L320.27046875,242.9898796311275L327.440703125,244.18145123170433L334.6109375,237.21917600429893L341.781171875,235.534772113098L348.95140625,245.4214258940888L356.121640625,239.28212664451743L363.291875,250.96504741623218L370.462109375,255.98845247543497L377.63234374999996,248.65564419012026L384.80257812499997,260.0575879181118L391.9728125,255.71985110129776L399.143046875,267.9205446010026L406.31328125,277.16875481968367L413.483515625,274.22046176614776L420.65375,274.22541672601153L427.823984375,277.18533112915054L442.164453125,281.84267812095464L449.33468750000003,284.922168253135L456.50492187500004,284.94120576278846L463.67515625,286.93885008881915L470.845390625,285.9805662446285L478.015625,283.4382997847859L485.185859375,281.031654092474L492.35609375,289.79145965154294L499.526328125,284.59497070414477L506.6965625,286.0993037677013L513.866796875,285.1207664880857L521.03703125,279.32852874240893L528.207265625,288.1853483560237L535.3775,290.0114738400319L542.547734375,288.57435480389194L549.7179687500001,295.25662928601116L556.888203125,290.46354054677454L564.0584375,295.29786877791884L571.228671875,294.83725414848806L578.39890625,299.80397959903775L585.569140625,306.98567014548723L592.739375,303.61956304677454L599.909609375,304.0445297978409L607.07984375,300.52040184569876L614.250078125,301.4651395769866L621.4203125,298.4864769602985L628.590546875,297.0677932277424L642.931015625,293.8059324368896L650.1012499999999,299.1976800781525L657.271484375,294.5913340820096L664.44171875,295.3817560716403L671.611953125,299.9601721670588L678.7821875,293.23581742086174L685.952421875,302.7282779862771L693.12265625,304.6884064510637L700.292890625,304.08402122766813L707.463125,300.6290306401911L714.633359375,297.02398979083677L721.80359375,291.99825634012205L728.973828125,300.08928109526386L736.1440625,303.4733962018475L743.314296875,306.63806752259643L750.48453125,298.52576835390994L757.654765625,301.5228397022907L764.825,303.122924709095L771.995234375,303.0012219302496L779.16546875,293.34692184940815L786.335703125,299.6306328330388L793.5059375,299.27223756932915L807.84640625,303.653482282303L815.016640625,304.4219695250048L822.186875,310.13909552215654L829.357109375,309.74257109444807L836.52734375,313.2280373014895L843.6975781250001,308.29230189847283L850.8678125,305.4840183676918L858.0380468750001,300.94904247353315L865.20828125,305.5413798834672L872.378515625,297.62322413896266L879.5487499999999,297.3677241770908L886.718984375,305.84496244749334L893.8892187499999,304.3288754758889L901.059453125,302.4773819141182L908.2296875,302.1305610711928L915.399921875,304.8541773334477L922.57015625,307.805248685201L929.740390625,305.9776357948899L936.910625,302.98294306040526L944.080859375,307.806404213552L958.421328125,309.6179878386523L965.5915625,302.26259640292324L972.761796875,304.43850235900874L979.93203125,304.908916463027L987.102265625,308.0524242443261L994.2725,307.3645130573164L1001.442734375,314.32695131322447L1008.61296875,312.47994550210655L1015.783203125,311.0380378865744L1022.9534375000001,310.0794196741906L1030.1236718750001,307.9381498183088L1037.29390625,308.00775906504845L1044.464140625,304.1310064498285L1051.6343749999999,302.8121395649731L1058.804609375,304.34034327520254L1065.97484375,313.1964207893808L1073.145078125,308.8875634435534L1087.485546875,309.5551825084519L1094.65578125,308.44555739571047L1101.826015625,308.2388909042441L1108.99625,310.83642411414166L1116.166484375,308.1732694264256L1123.33671875,305.1024438802006L1130.506953125,304.3150216200114L1137.6771875,305.212319657693L1144.847421875,308.75229578047373L1152.01765625,306.72166653620826L1159.187890625,305.065779236839L1166.358125,309.5588205086504L1173.528359375,313.2369994060585L1180.69859375,319.6558112721228L1187.868828125,322.48541259590286L1195.0390625,319.80793973996344L1209.3795312500001,317.4376146432405L1216.549765625,309.0972333006051L1223.72,303.5037303270094L1230.8902343749999,302.28488644666623L1238.06046875,306.51299822155926L1245.230703125,310.0562434081691L1252.4009375,308.8784983655487L1259.571171875,308.6728730082914L1266.74140625,306.2825530725959L1273.911640625,305.0418234830047L1281.081875,307.87365692794L1288.252109375,304.6761404689531L1295.42234375,303.4687215308178L1302.592578125,306.7987563234465L1309.7628125,305.38405905943495" style="fill: none;" fill="none"></path></g></g></g></g><g opacity="0.2"><g><g><g><path stroke="rgb(51, 187, 238)" stroke-width="2px" d="M133.844375,52.99347048997882L141.014609375,42.90419375896454L148.18484375,36.1417100429535L155.355078125,40.37870621681215L162.52531249999998,88.56937444210054L169.695546875,84.17189499735835L176.86578125,121.11193022131918L184.036015625,102.73334911465646L191.20625,114.27403172850609L198.376484375,105.70052942633627L205.54671875,135.3778713047504L212.716953125,168.04719275236127L219.88718749999998,137.17862597107884L227.057421875,137.77319794893265L234.22765625,158.8786177933216L241.397890625,183.54338040947914L248.568125,162.54003649950027L255.73835937500002,177.2321180105209L262.90859374999997,179.5790196061134L270.078828125,188.9984191060066L277.2490625,210.7058428823948L284.419296875,207.65803760290146L291.58953125,204.74211430549622L298.759765625,233.47534766793248L305.93,242.1925057321787L313.100234375,253.4410656094551L320.27046875,252.7405296117067L327.440703125,245.96880680322647L334.6109375,226.7757695764303L341.781171875,233.00816720724106L348.95140625,260.2514032870531L356.121640625,230.07317899167538L363.291875,268.48942717909813L370.462109375,263.52355970442295L377.63234374999996,237.65643207728863L384.80257812499997,277.1605032160878L391.9728125,249.21324594318864L399.143046875,286.2215847373008L406.31328125,291.04107009619474L413.483515625,269.79802219569683L420.65375,274.23284916579723L427.823984375,281.62520273029804L442.164453125,288.828698605299L449.33468750000003,289.5414034500718L456.50492187500004,284.96976202726364L463.67515625,289.93531657755375L470.845390625,284.5431404784322L478.015625,279.6249000951648L485.185859375,277.42168555408716L492.35609375,302.93116798996925L499.526328125,276.8002372831106L506.6965625,288.3558033630252L513.866796875,283.6529605686664L521.03703125,270.640172123909L528.207265625,301.47057777643204L535.3775,292.7506620660424L542.547734375,286.4186762496829L549.7179687500001,305.2800410091877L556.888203125,283.27390743792057L564.0584375,302.54936112463474L571.228671875,294.1463322043419L578.39890625,307.25406777486205L585.569140625,317.7582059651613L592.739375,298.5704023987055L599.909609375,304.6819799244404L607.07984375,295.2342099174857L614.250078125,302.88224617391825L621.4203125,294.0184830352664L628.590546875,294.93976762890816L642.931015625,288.9131412506103L650.1012499999999,307.28530154004693L657.271484375,287.68181508779526L664.44171875,296.56738905608654L671.611953125,306.8277963101864L678.7821875,283.1492853015661L685.952421875,316.9669688344002L693.12265625,307.62859914824367L700.292890625,303.1774433925748L707.463125,295.44654475897545L714.633359375,291.6164285168052L721.80359375,284.4596561640501L728.973828125,312.22581822797656L736.1440625,308.54956886172295L743.314296875,311.3850745037198L750.48453125,286.35731960088015L757.654765625,306.01844672486186L764.825,305.52305221930146L771.995234375,302.8186677619815L779.16546875,278.8654717281461L786.335703125,309.0561993084848L793.5059375,298.7346446737647L807.84640625,310.2253493517637L815.016640625,305.5747003890574L822.186875,318.71478451788425L829.357109375,309.1477844528854L836.52734375,318.4562366120517L843.6975781250001,300.8886987939477L850.8678125,301.27159307152033L858.0380468750001,294.14657863229513L865.20828125,312.42988599836826L872.378515625,285.74599052220583L879.5487499999999,296.98447423428297L886.718984375,318.5608198530972L893.8892187499999,302.0547450184822L901.059453125,299.70014157146215L908.2296875,301.61032980680466L915.399921875,308.93960172683L922.57015625,312.231855712831L929.740390625,303.2362164594233L936.910625,298.49090395867825L944.080859375,315.0415959432721L958.421328125,312.3353632763028L965.5915625,291.22950924932957L972.761796875,307.7023612931371L979.93203125,305.6145376190543L987.102265625,312.7676859162748L994.2725,306.3326462768018L1001.442734375,324.7706086970866L1008.61296875,309.7094367854297L1015.783203125,308.87517646327615L1022.9534375000001,308.6414923556149L1030.1236718750001,304.72624503448606L1037.29390625,308.112172935158L1044.464140625,298.3158775269985L1051.6343749999999,300.83383923769L1058.804609375,306.6326488405466L1065.97484375,326.4805370606482L1073.145078125,302.4242774248123L1087.485546875,310.5566111057997L1094.65578125,306.78111972659826L1101.826015625,307.92889116704464L1108.99625,314.732723928988L1116.166484375,304.17853739485145L1123.33671875,300.496205560863L1130.506953125,303.13388822972775L1137.6771875,306.5582667142153L1144.847421875,314.0622599646449L1152.01765625,303.67572266981006L1159.187890625,302.58194828778505L1166.358125,316.29838241636753L1173.528359375,318.75426775217056L1180.69859375,329.28402907121927L1187.868828125,326.729814581573L1195.0390625,315.7917304560542L1209.3795312500001,313.8821269981563L1216.549765625,296.58666128665203L1223.72,295.1134758666158L1230.8902343749999,300.45662062615156L1238.06046875,312.85516588389874L1245.230703125,315.3711111880839L1252.4009375,307.1118808016181L1259.571171875,308.36443497240543L1266.74140625,302.6970731690526L1273.911640625,303.18072909861803L1281.081875,312.1214070953429L1288.252109375,299.87986578047276L1295.42234375,301.6575931236148L1302.592578125,311.79380851238966L1309.7628125,303.2620131634176" style="fill: none;" fill="none"></path></g></g></g></g></g></g><g transform="translate(61, 378)" clip-path="url(#clip_1)"><clipPath id="clip_1"><rect width="1434" height="22"></rect></clipPath><g><g><line x1="0" y1="0" x2="0" y2="5" style="visibility: inherit;" fill="rgb(0, 0, 0)" stroke="rgb(204, 204, 204)" stroke-width="1px"></line><line x1="119.50390625" y1="0" x2="119.50390625" y2="5" style="visibility: inherit;" fill="rgb(0, 0, 0)" stroke="rgb(204, 204, 204)" stroke-width="1px"></line><line x1="239.0078125" y1="0" x2="239.0078125" y2="5" style="visibility: inherit;" fill="rgb(0, 0, 0)" stroke="rgb(204, 204, 204)" stroke-width="1px"></line><line x1="358.51171875" y1="0" x2="358.51171875" y2="5" style="visibility: inherit;" fill="rgb(0, 0, 0)" stroke="rgb(204, 204, 204)" stroke-width="1px"></line><line x1="478.015625" y1="0" x2="478.015625" y2="5" style="visibility: inherit;" fill="rgb(0, 0, 0)" stroke="rgb(204, 204, 204)" stroke-width="1px"></line><line x1="597.51953125" y1="0" x2="597.51953125" y2="5" style="visibility: inherit;" fill="rgb(0, 0, 0)" stroke="rgb(204, 204, 204)" stroke-width="1px"></line><line x1="717.0234375" y1="0" x2="717.0234375" y2="5" style="visibility: inherit;" fill="rgb(0, 0, 0)" stroke="rgb(204, 204, 204)" stroke-width="1px"></line><line x1="836.52734375" y1="0" x2="836.52734375" y2="5" style="visibility: inherit;" fill="rgb(0, 0, 0)" stroke="rgb(204, 204, 204)" stroke-width="1px"></line><line x1="956.03125" y1="0" x2="956.03125" y2="5" style="visibility: inherit;" fill="rgb(0, 0, 0)" stroke="rgb(204, 204, 204)" stroke-width="1px"></line><line x1="1075.53515625" y1="0" x2="1075.53515625" y2="5" style="visibility: inherit;" fill="rgb(0, 0, 0)" stroke="rgb(204, 204, 204)" stroke-width="1px"></line><line x1="1195.0390625" y1="0" x2="1195.0390625" y2="5" style="visibility: inherit;" fill="rgb(0, 0, 0)" stroke="rgb(204, 204, 204)" stroke-width="1px"></line><line x1="1314.54296875" y1="0" x2="1314.54296875" y2="5" style="visibility: inherit;" fill="rgb(0, 0, 0)" stroke="rgb(204, 204, 204)" stroke-width="1px"></line><line x1="1434.046875" y1="0" x2="1434.046875" y2="5" style="visibility: inherit;" fill="rgb(0, 0, 0)" stroke="rgb(204, 204, 204)" stroke-width="1px"></line></g><g transform="translate(0, 8)"><text x="0" y="0" dx="0em" dy="0.95em" style="text-anchor: middle; visibility: hidden; font-family: Roboto, sans-serif; font-size: 12px; font-weight: 200;" fill="rgb(50, 49, 63)" stroke="none" stroke-width="1px">-200k</text><text x="119.50390625" y="0" dx="0em" dy="0.95em" style="text-anchor: middle; visibility: inherit; font-family: Roboto, sans-serif; font-size: 12px; font-weight: 200;" fill="rgb(50, 49, 63)" stroke="none" stroke-width="1px">0</text><text x="239.0078125" y="0" dx="0em" dy="0.95em" style="text-anchor: middle; visibility: inherit; font-family: Roboto, sans-serif; font-size: 12px; font-weight: 200;" fill="rgb(50, 49, 63)" stroke="none" stroke-width="1px">200k</text><text x="358.51171875" y="0" dx="0em" dy="0.95em" style="text-anchor: middle; visibility: inherit; font-family: Roboto, sans-serif; font-size: 12px; font-weight: 200;" fill="rgb(50, 49, 63)" stroke="none" stroke-width="1px">400k</text><text x="478.015625" y="0" dx="0em" dy="0.95em" style="text-anchor: middle; visibility: inherit; font-family: Roboto, sans-serif; font-size: 12px; font-weight: 200;" fill="rgb(50, 49, 63)" stroke="none" stroke-width="1px">600k</text><text x="597.51953125" y="0" dx="0em" dy="0.95em" style="text-anchor: middle; visibility: inherit; font-family: Roboto, sans-serif; font-size: 12px; font-weight: 200;" fill="rgb(50, 49, 63)" stroke="none" stroke-width="1px">800k</text><text x="717.0234375" y="0" dx="0em" dy="0.95em" style="text-anchor: middle; visibility: inherit; font-family: Roboto, sans-serif; font-size: 12px; font-weight: 200;" fill="rgb(50, 49, 63)" stroke="none" stroke-width="1px">1M</text><text x="836.52734375" y="0" dx="0em" dy="0.95em" style="text-anchor: middle; visibility: inherit; font-family: Roboto, sans-serif; font-size: 12px; font-weight: 200;" fill="rgb(50, 49, 63)" stroke="none" stroke-width="1px">1.2M</text><text x="956.03125" y="0" dx="0em" dy="0.95em" style="text-anchor: middle; visibility: inherit; font-family: Roboto, sans-serif; font-size: 12px; font-weight: 200;" fill="rgb(50, 49, 63)" stroke="none" stroke-width="1px">1.4M</text><text x="1075.53515625" y="0" dx="0em" dy="0.95em" style="text-anchor: middle; visibility: inherit; font-family: Roboto, sans-serif; font-size: 12px; font-weight: 200;" fill="rgb(50, 49, 63)" stroke="none" stroke-width="1px">1.6M</text><text x="1195.0390625" y="0" dx="0em" dy="0.95em" style="text-anchor: middle; visibility: inherit; font-family: Roboto, sans-serif; font-size: 12px; font-weight: 200;" fill="rgb(50, 49, 63)" stroke="none" stroke-width="1px">1.8M</text><text x="1314.54296875" y="0" dx="0em" dy="0.95em" style="text-anchor: middle; visibility: inherit; font-family: Roboto, sans-serif; font-size: 12px; font-weight: 200;" fill="rgb(50, 49, 63)" stroke="none" stroke-width="1px">2M</text><text x="1434.046875" y="0" dx="0em" dy="0.95em" style="text-anchor: middle; visibility: hidden; font-family: Roboto, sans-serif; font-size: 12px; font-weight: 200;" fill="rgb(50, 49, 63)" stroke="none" stroke-width="1px">2.2M</text></g><line x1="0" y1="0" x2="1434.046875" y2="0" fill="rgb(0, 0, 0)" stroke="rgb(204, 204, 204)" stroke-width="1px"></line></g></g></g></g></svg>