<svg viewBox="0 0 1496 400" xmlns="http://www.w3.org/2000/svg"><g><g><g><g><g><line x1="30" y1="359.55671941877875" x2="25" y2="359.55671941877875" style="visibility: inherit;" fill="rgb(0, 0, 0)" stroke="rgb(204, 204, 204)" stroke-width="1px"></line><line x1="30" y1="322.99359576034146" x2="25" y2="322.99359576034146" style="visibility: inherit;" fill="rgb(0, 0, 0)" stroke="rgb(204, 204, 204)" stroke-width="1px"></line><line x1="30" y1="286.4304721019042" x2="25" y2="286.4304721019042" style="visibility: inherit;" fill="rgb(0, 0, 0)" stroke="rgb(204, 204, 204)" stroke-width="1px"></line><line x1="30" y1="249.86734844346688" x2="25" y2="249.86734844346688" style="visibility: inherit;" fill="rgb(0, 0, 0)" stroke="rgb(204, 204, 204)" stroke-width="1px"></line><line x1="30" y1="213.30422478502962" x2="25" y2="213.30422478502962" style="visibility: inherit;" fill="rgb(0, 0, 0)" stroke="rgb(204, 204, 204)" stroke-width="1px"></line><line x1="30" y1="176.7411011265923" x2="25" y2="176.7411011265923" style="visibility: inherit;" fill="rgb(0, 0, 0)" stroke="rgb(204, 204, 204)" stroke-width="1px"></line><line x1="30" y1="140.17797746815504" x2="25" y2="140.17797746815504" style="visibility: inherit;" fill="rgb(0, 0, 0)" stroke="rgb(204, 204, 204)" stroke-width="1px"></line><line x1="30" y1="103.61485380971776" x2="25" y2="103.61485380971776" style="visibility: inherit;" fill="rgb(0, 0, 0)" stroke="rgb(204, 204, 204)" stroke-width="1px"></line><line x1="30" y1="67.05173015128045" x2="25" y2="67.05173015128045" style="visibility: inherit;" fill="rgb(0, 0, 0)" stroke="rgb(204, 204, 204)" stroke-width="1px"></line><line x1="30" y1="30.488606492843182" x2="25" y2="30.488606492843182" style="visibility: inherit;" fill="rgb(0, 0, 0)" stroke="rgb(204, 204, 204)" stroke-width="1px"></line></g><g transform="translate(20, 0)"><text x="0" y="359.55671941877875" dx="0em" dy="0.3em" style="text-anchor: end; visibility: inherit; font-family: Roboto, sans-serif; font-size: 12px; font-weight: 200;" fill="rgb(50, 49, 63)" stroke="none" stroke-width="1px">0</text><text x="0" y="322.99359576034146" dx="0em" dy="0.3em" style="text-anchor: end; visibility: inherit; font-family: Roboto, sans-serif; font-size: 12px; font-weight: 200;" fill="rgb(50, 49, 63)" stroke="none" stroke-width="1px">2</text><text x="0" y="286.4304721019042" dx="0em" dy="0.3em" style="text-anchor: end; visibility: inherit; font-family: Roboto, sans-serif; font-size: 12px; font-weight: 200;" fill="rgb(50, 49, 63)" stroke="none" stroke-width="1px">4</text><text x="0" y="249.86734844346688" dx="0em" dy="0.3em" style="text-anchor: end; visibility: inherit; font-family: Roboto, sans-serif; font-size: 12px; font-weight: 200;" fill="rgb(50, 49, 63)" stroke="none" stroke-width="1px">6</text><text x="0" y="213.30422478502962" dx="0em" dy="0.3em" style="text-anchor: end; visibility: inherit; font-family: Roboto, sans-serif; font-size: 12px; font-weight: 200;" fill="rgb(50, 49, 63)" stroke="none" stroke-width="1px">8</text><text x="0" y="176.7411011265923" dx="0em" dy="0.3em" style="text-anchor: end; visibility: inherit; font-family: Roboto, sans-serif; font-size: 12px; font-weight: 200;" fill="rgb(50, 49, 63)" stroke="none" stroke-width="1px">10</text><text x="0" y="140.17797746815504" dx="0em" dy="0.3em" style="text-anchor: end; visibility: inherit; font-family: Roboto, sans-serif; font-size: 12px; font-weight: 200;" fill="rgb(50, 49, 63)" stroke="none" stroke-width="1px">12</text><text x="0" y="103.61485380971776" dx="0em" dy="0.3em" style="text-anchor: end; visibility: inherit; font-family: Roboto, sans-serif; font-size: 12px; font-weight: 200;" fill="rgb(50, 49, 63)" stroke="none" stroke-width="1px">14</text><text x="0" y="67.05173015128045" dx="0em" dy="0.3em" style="text-anchor: end; visibility: inherit; font-family: Roboto, sans-serif; font-size: 12px; font-weight: 200;" fill="rgb(50, 49, 63)" stroke="none" stroke-width="1px">16</text><text x="0" y="30.488606492843182" dx="0em" dy="0.3em" style="text-anchor: end; visibility: inherit; font-family: Roboto, sans-serif; font-size: 12px; font-weight: 200;" fill="rgb(50, 49, 63)" stroke="none" stroke-width="1px">18</text></g><line x1="30" y1="0" x2="30" y2="378" fill="rgb(0, 0, 0)" stroke="rgb(204, 204, 204)" stroke-width="1px"></line></g></g><g transform="translate(30, 0)" clip-path="url(#clip_0)"><clipPath id="clip_0"><rect width="1466" height="378"></rect></clipPath><g><g><g><line x1="105.84025058321373" y1="0" x2="105.84025058321373" y2="378" fill="rgb(0, 0, 0)" stroke="rgb(60, 60, 60)" stroke-width="1px" opacity="0.25"></line><line x1="212.19251106589056" y1="0" x2="212.19251106589056" y2="378" fill="rgb(0, 0, 0)" stroke="rgb(60, 60, 60)" stroke-width="1px" opacity="0.25"></line><line x1="318.5447715485673" y1="0" x2="318.5447715485673" y2="378" fill="rgb(0, 0, 0)" stroke="rgb(60, 60, 60)" stroke-width="1px" opacity="0.25"></line><line x1="424.8970320312442" y1="0" x2="424.8970320312442" y2="378" fill="rgb(0, 0, 0)" stroke="rgb(60, 60, 60)" stroke-width="1px" opacity="0.25"></line><line x1="531.249292513921" y1="0" x2="531.249292513921" y2="378" fill="rgb(0, 0, 0)" stroke="rgb(60, 60, 60)" stroke-width="1px" opacity="0.25"></line><line x1="637.6015529965978" y1="0" x2="637.6015529965978" y2="378" fill="rgb(0, 0, 0)" stroke="rgb(60, 60, 60)" stroke-width="1px" opacity="0.25"></line><line x1="743.9538134792747" y1="0" x2="743.9538134792747" y2="378" fill="rgb(0, 0, 0)" stroke="rgb(60, 60, 60)" stroke-width="1px" opacity="0.25"></line><line x1="850.3060739619515" y1="0" x2="850.3060739619515" y2="378" fill="rgb(0, 0, 0)" stroke="rgb(60, 60, 60)" stroke-width="1px" opacity="0.25"></line><line x1="956.6583344446282" y1="0" x2="956.6583344446282" y2="378" fill="rgb(0, 0, 0)" stroke="rgb(60, 60, 60)" stroke-width="1px" opacity="0.25"></line><line x1="1063.010594927305" y1="0" x2="1063.010594927305" y2="378" fill="rgb(0, 0, 0)" stroke="rgb(60, 60, 60)" stroke-width="1px" opacity="0.25"></line><line x1="1169.3628554099819" y1="0" x2="1169.3628554099819" y2="378" fill="rgb(0, 0, 0)" stroke="rgb(60, 60, 60)" stroke-width="1px" opacity="0.25"></line><line x1="1275.7151158926586" y1="0" x2="1275.7151158926586" y2="378" fill="rgb(0, 0, 0)" stroke="rgb(60, 60, 60)" stroke-width="1px" opacity="0.25"></line><line x1="1382.0673763753355" y1="0" x2="1382.0673763753355" y2="378" fill="rgb(0, 0, 0)" stroke="rgb(60, 60, 60)" stroke-width="1px" opacity="0.25"></line></g><g><line x1="0" y1="359.55671941877875" x2="1466" y2="359.55671941877875" fill="rgb(0, 0, 0)" stroke="rgb(60, 60, 60)" stroke-width="1px" opacity="0.25"></line><line x1="0" y1="322.99359576034146" x2="1466" y2="322.99359576034146" fill="rgb(0, 0, 0)" stroke="rgb(60, 60, 60)" stroke-width="1px" opacity="0.25"></line><line x1="0" y1="286.4304721019042" x2="1466" y2="286.4304721019042" fill="rgb(0, 0, 0)" stroke="rgb(60, 60, 60)" stroke-width="1px" opacity="0.25"></line><line x1="0" y1="249.86734844346688" x2="1466" y2="249.86734844346688" fill="rgb(0, 0, 0)" stroke="rgb(60, 60, 60)" stroke-width="1px" opacity="0.25"></line><line x1="0" y1="213.30422478502962" x2="1466" y2="213.30422478502962" fill="rgb(0, 0, 0)" stroke="rgb(60, 60, 60)" stroke-width="1px" opacity="0.25"></line><line x1="0" y1="176.7411011265923" x2="1466" y2="176.7411011265923" fill="rgb(0, 0, 0)" stroke="rgb(60, 60, 60)" stroke-width="1px" opacity="0.25"></line><line x1="0" y1="140.17797746815504" x2="1466" y2="140.17797746815504" fill="rgb(0, 0, 0)" stroke="rgb(60, 60, 60)" stroke-width="1px" opacity="0.25"></line><line x1="0" y1="103.61485380971776" x2="1466" y2="103.61485380971776" fill="rgb(0, 0, 0)" stroke="rgb(60, 60, 60)" stroke-width="1px" opacity="0.25"></line><line x1="0" y1="67.05173015128045" x2="1466" y2="67.05173015128045" fill="rgb(0, 0, 0)" stroke="rgb(60, 60, 60)" stroke-width="1px" opacity="0.25"></line><line x1="0" y1="30.488606492843182" x2="1466" y2="30.488606492843182" fill="rgb(0, 0, 0)" stroke="rgb(60, 60, 60)" stroke-width="1px" opacity="0.25"></line></g></g></g><g><g><line x1="0" y1="359.55671941877875" x2="1466" y2="359.55671941877875" fill="rgb(0, 0, 0)" stroke="rgb(153, 153, 153)" stroke-width="1.5px"></line></g></g><g><g><line x1="-0.5120098994630645" y1="0" x2="-0.5120098994630645" y2="378" fill="rgb(0, 0, 0)" stroke="rgb(153, 153, 153)" stroke-width="1.5px"></line></g></g><g><g><g><g><g><path stroke="rgb(51, 187, 238)" stroke-width="2px" d="M5.869125729497544,369.4130273321483L12.250261358458154,370.25822812617673L18.63139698741876,370.8489020120474L25.01253261637937,369.73042621575536L31.393668245339978,370.17922158006337L37.77480387430058,370.2055461090196L44.155939503261195,371.37412389513156L50.5370751322218,370.24935862579815L56.918210761182415,369.77047222846244L63.29934639014302,369.1661253769784L69.68048201910362,369.1458638386232L76.06161764806423,369.765321487541L82.44275327702485,368.74594558606725L88.82388890598546,365.07257252761536L95.20502453494606,365.71293435779916L101.58616016390667,367.60410647163803L107.96729579286729,366.14480981134045L114.3484314218279,367.29572284946096L120.7295670507885,368.51638598153176L127.1107026797491,369.38784766603385L133.4918383087097,367.09314573380055L139.8729739376703,366.8956211704662L146.25410956663092,366.15603650513543L152.63524519559152,367.8328233051681L159.01638082455216,368.993107680529L165.39751645351276,367.4409788877048L171.77865208247337,365.6980884023951L178.15978771143398,367.3057000183001L184.54092334039458,366.62824871125997L190.92205896935516,362.8588676815542L197.3031945983158,358.5651825545993L203.6843302272764,362.7875918570803L210.06546585623704,361.9970288060455L216.44660148519762,364.3756800974905L222.82773711415825,365.73715285329195L229.20887274311883,364.24633440606755L235.59000837207947,356.3034490651099L241.97114400104005,353.02047349559814L248.35227963000065,358.28889373425403L254.7334152589613,355.8899891761405L261.1145508879219,357.57007861699L267.4956865168825,355.09142273458065L273.8768221458431,354.3976496712106L280.25795777480374,357.64501018554677L286.6390934037643,351.35008828381297L293.02022903272496,343.5894613949512L299.40136466168553,306.18836832343806L305.78250029064617,321.61979829346865L312.16363591960675,325.99382177236254L318.5447715485673,339.9447593859393L324.92590717752796,332.6646027475441L331.30704280648854,334.454711698223L337.6881784354492,324.5832390228679L344.06931406440975,309.3660100531721L350.4504496933704,325.61988103019036L356.831585322331,322.77229498747516L363.21272095129166,333.9760075824435L369.59385658025224,340.8188925478675L375.9749922092128,342.4106483454298L382.3561278381735,344.06980520026275L388.7372634671341,329.07989823947446L395.11839909609466,316.72702636767985L401.49953472505524,293.97585530325364L407.8806703540158,305.07838731162167L414.2618059829765,309.6387445426559L420.6429416119371,306.6333291568011L427.02407724089767,275.0567348438102L433.4052128698583,288.8542669217825L439.78634849881894,302.1663160577284L446.1674841277795,208.91025068947042L452.54861975674015,209.0956388422881L471.692026643622,25.447926971458735L478.0731622725826,120.24861697993094L484.45429790154316,149.4196684736447L490.83543353050374,227.8035514268265L497.2165691594644,258.4426335879397L503.597704788425,287.2867971451142L522.7411116753069,250.02284036741017L529.1222473042675,215.8435951995719L535.5033829332281,223.09111730435646L541.8845185621886,232.06853173000187L548.2656541911493,275.82918908334506L554.6467898201099,234.87038455724212L561.0279254490706,181.86360634029955L567.4090610780312,233.13339295988467L580.1713323359523,256.11036849528784L586.552467964913,294.74960295870653L592.9336035938736,313.26293694083415L599.3147392228342,321.12961074804014L605.6958748517948,317.3157928985268L612.0770104807555,250.9945071708856L618.458146109716,271.95501567289324L624.8392817386766,267.82198135187235L631.2204173676372,289.26906070797446L637.6015529965978,278.76616941467455L643.9826886255585,292.01594029645076L650.363824254519,296.3094974335352L656.7449598834796,261.75455670413373L663.1260955124402,276.4341960029265L669.5072311414009,257.6319492798149L675.8883667703615,260.75646694619127L682.269502399322,238.9675443895365L695.0317736572433,115.06404941785227L707.7940449151646,175.1645458529179L726.9374518020464,157.98529028992297L733.3185874310069,185.42916143207626L739.6997230599676,247.51893559866087L746.0808586889283,247.04697579577004L752.4619943178889,235.7400133887903L758.8431299468494,274.4074523282859L765.22426557581,286.18315997464015L784.3676724626918,253.0279472903747L797.1299437206131,262.1598327138406L822.6544862364555,231.84793056264004L829.035621865416,276.1160795552868L835.4167574943766,297.87806594456725L848.179028752298,224.5091984646762L860.9413000102192,229.11315791436877L867.3224356391797,227.93036732498987L880.084706897101,218.53330377245263L886.4658425260616,226.01756282753115L892.8469781550222,241.37102126736835L899.2281137839827,273.72023948992324L911.9903850419041,194.89198884450667L924.7526562998253,178.15448253797211L931.1337919287859,219.74276673215778L963.039470073589,125.86198684575362L969.4206057025496,100.58286985381116L975.8017413315101,200.8012927626809L982.1828769604707,204.33629469002426L988.5640125894313,227.72606630121123L994.9451482183919,242.19868982032406L1001.3262838473524,270.15468084701195L1007.707419476313,304.672352455521L1014.0885551052738,318.61147244475313L1020.4696907342344,295.00414316265017L1026.850826363195,313.3077998205125L1039.6130976211161,189.53295940268632L1045.9942332500768,238.48211293191983L1052.3753688790373,240.15505003637347L1058.756504507998,274.93946947096" style="fill: none;" fill="none"></path></g></g></g></g><g opacity="0.2"><g><g><g><path stroke="rgb(51, 187, 238)" stroke-width="2px" d="M5.869125729497544,369.4130273321483L12.250261358458154,370.76534860259375L18.63139698741876,371.41594894248334L25.01253261637937,368.41509867931586L31.393668245339978,370.76516880770396L37.77480387430058,370.2419624093966L44.155939503261195,373.0452088265161L50.5370751322218,368.6094400653635L56.918210761182415,369.0642078112861L63.29934639014302,368.2687407355241L69.68048201910362,369.11565530175204L76.06161764806423,370.6911368997475L82.44275327702485,367.22021017304075L88.82388890598546,359.56970946016594L95.20502453494606,366.67272438178173L101.58616016390667,370.43953084129953L107.96729579286729,363.95648234633404L114.3484314218279,369.02180018994596L120.7295670507885,370.34719472389577L127.1107026797491,370.6949605377372L133.4918383087097,363.65121868235815L139.8729739376703,366.5993408250946L146.25410956663092,365.04667410894837L152.63524519559152,370.3479836420789L159.01638082455216,370.73352599676565L165.39751645351276,365.1127923175887L171.77865208247337,363.0837571340097L178.15978771143398,369.71711497409507L184.54092334039458,365.6120723747281L190.92205896935516,357.2047982202752L197.3031945983158,352.1246562879995L203.6843302272764,369.1212049706838L210.06546585623704,360.81118432387063L216.44660148519762,367.94365686428006L222.82773711415825,367.77936192848256L229.20887274311883,362.0101067736732L235.59000837207947,344.38912117656287L241.97114400104005,348.0960101718063L248.35227963000065,366.19152406289396L254.7334152589613,352.29163234698706L261.1145508879219,360.09021277489546L267.4956865168825,351.3734389139485L273.8768221458431,353.3569900766564L280.25795777480374,362.5160509556446L286.6390934037643,341.90770543284805L293.02022903272496,331.9485210628686L299.40136466168553,250.08672871966724L305.78250029064617,344.7669432476483L312.16363591960675,332.5548569905561L318.5447715485673,360.8711658060224L324.92590717752796,321.7443677900397L331.30704280648854,337.13987512422824L337.6881784354492,309.77603000987824L344.06931406440975,286.54016659866835L350.4504496933704,350.0006874956922L356.831585322331,318.5009159234051L363.21272095129166,350.7815764748897L369.59385658025224,351.08321999600116L375.9749922092128,344.79828204177295L382.3561278381735,346.5585404825119L388.7372634671341,306.59503779829316L395.11839909609466,298.1977185599886L401.49953472505524,259.8490987066148L407.8806703540158,321.73218532417343L414.2618059829765,316.47928038920725L420.6429416119371,302.125206078019L427.02407724089767,227.691843374324L433.4052128698583,309.5505650387408L439.78634849881894,322.13438976164736L446.1674841277795,69.02615263708361L452.54861975674015,209.37372107151458L471.692026643622,-250.02364083478528L478.0731622725826,262.4496519926392L484.45429790154316,193.17624571421527L490.83543353050374,345.379375856599L497.2165691594644,304.4012568296096L503.597704788425,330.5530424808759L522.7411116753069,194.12690520085417L529.1222473042675,164.57472744781447L535.5033829332281,233.96240046153338L541.8845185621886,245.5346533684699L548.2656541911493,341.4701751133599L554.6467898201099,173.43217776808766L561.0279254490706,102.35343901488572L567.4090610780312,310.0380728892625L580.1713323359523,290.57583179839264L586.552467964913,352.7084546538345L592.9336035938736,341.0329379140255L599.3147392228342,332.92962145884906L605.6958748517948,311.5950661242568L612.0770104807555,151.51257857942383L618.458146109716,303.39577842590467L624.8392817386766,261.622429870341L631.2204173676372,321.4396797421276L637.6015529965978,263.01183247472454L643.9826886255585,311.89059661911523L650.363824254519,302.74983313916186L656.7449598834796,209.9221456100315L663.1260955124402,298.45365495111565L669.5072311414009,229.42857919514742L675.8883667703615,265.44324344575585L682.269502399322,206.28416055455432L695.0317736572433,-70.79119303967387L707.7940449151646,265.31529050551626L726.9374518020464,132.21640694543052L733.3185874310069,226.59496814530618L739.6997230599676,340.65359684853775L746.0808586889283,246.33903609143385L752.4619943178889,218.77956977832068L758.8431299468494,332.4086107375292L765.22426557581,303.84672144417164L784.3676724626918,203.2951282639765L797.1299437206131,275.8576608490394L822.6544862364555,186.38007733583925L829.035621865416,342.51830304425675L835.4167574943766,330.521045528488L848.179028752298,114.45589724483973L860.9413000102192,236.01909708890767L867.3224356391797,226.1561814409215L880.084706897101,204.4377084436467L886.4658425260616,237.24395141014895L892.8469781550222,264.4012089271242L899.2281137839827,322.2440668237556L911.9903850419041,76.64961287638177L924.7526562998253,153.0482230781703L931.1337919287859,282.1251930234362L963.039470073589,-14.959182983852516L969.4206057025496,62.6641943658974L975.8017413315101,351.12892712598557L982.1828769604707,209.63879758103934L988.5640125894313,262.8107237179916L994.9451482183919,263.9076250989933L1001.3262838473524,312.08866738704364L1007.707419476313,356.4488598682846L1014.0885551052738,339.52015242860125L1020.4696907342344,259.5931492394958L1026.850826363195,340.7632848073059L1039.6130976211161,3.870698775947139L1045.9942332500768,311.90584322577L1052.3753688790373,242.66445569305395L1058.756504507998,327.1160986228397" style="fill: none;" fill="none"></path></g></g></g></g></g></g><g transform="translate(30, 378)" clip-path="url(#clip_1)"><clipPath id="clip_1"><rect width="1466" height="22"></rect></clipPath><g><g><line x1="105.84025058321373" y1="0" x2="105.84025058321373" y2="5" style="visibility: inherit;" fill="rgb(0, 0, 0)" stroke="rgb(204, 204, 204)" stroke-width="1px"></line><line x1="212.19251106589056" y1="0" x2="212.19251106589056" y2="5" style="visibility: inherit;" fill="rgb(0, 0, 0)" stroke="rgb(204, 204, 204)" stroke-width="1px"></line><line x1="318.5447715485673" y1="0" x2="318.5447715485673" y2="5" style="visibility: inherit;" fill="rgb(0, 0, 0)" stroke="rgb(204, 204, 204)" stroke-width="1px"></line><line x1="424.8970320312442" y1="0" x2="424.8970320312442" y2="5" style="visibility: inherit;" fill="rgb(0, 0, 0)" stroke="rgb(204, 204, 204)" stroke-width="1px"></line><line x1="531.249292513921" y1="0" x2="531.249292513921" y2="5" style="visibility: inherit;" fill="rgb(0, 0, 0)" stroke="rgb(204, 204, 204)" stroke-width="1px"></line><line x1="637.6015529965978" y1="0" x2="637.6015529965978" y2="5" style="visibility: inherit;" fill="rgb(0, 0, 0)" stroke="rgb(204, 204, 204)" stroke-width="1px"></line><line x1="743.9538134792747" y1="0" x2="743.9538134792747" y2="5" style="visibility: inherit;" fill="rgb(0, 0, 0)" stroke="rgb(204, 204, 204)" stroke-width="1px"></line><line x1="850.3060739619515" y1="0" x2="850.3060739619515" y2="5" style="visibility: inherit;" fill="rgb(0, 0, 0)" stroke="rgb(204, 204, 204)" stroke-width="1px"></line><line x1="956.6583344446282" y1="0" x2="956.6583344446282" y2="5" style="visibility: inherit;" fill="rgb(0, 0, 0)" stroke="rgb(204, 204, 204)" stroke-width="1px"></line><line x1="1063.010594927305" y1="0" x2="1063.010594927305" y2="5" style="visibility: inherit;" fill="rgb(0, 0, 0)" stroke="rgb(204, 204, 204)" stroke-width="1px"></line><line x1="1169.3628554099819" y1="0" x2="1169.3628554099819" y2="5" style="visibility: inherit;" fill="rgb(0, 0, 0)" stroke="rgb(204, 204, 204)" stroke-width="1px"></line><line x1="1275.7151158926586" y1="0" x2="1275.7151158926586" y2="5" style="visibility: inherit;" fill="rgb(0, 0, 0)" stroke="rgb(204, 204, 204)" stroke-width="1px"></line><line x1="1382.0673763753355" y1="0" x2="1382.0673763753355" y2="5" style="visibility: inherit;" fill="rgb(0, 0, 0)" stroke="rgb(204, 204, 204)" stroke-width="1px"></line></g><g transform="translate(0, 8)"><text x="105.84025058321373" y="0" dx="0em" dy="0.95em" style="text-anchor: middle; visibility: inherit; font-family: Roboto, sans-serif; font-size: 12px; font-weight: 200;" fill="rgb(50, 49, 63)" stroke="none" stroke-width="1px">200k</text><text x="212.19251106589056" y="0" dx="0em" dy="0.95em" style="text-anchor: middle; visibility: inherit; font-family: Roboto, sans-serif; font-size: 12px; font-weight: 200;" fill="rgb(50, 49, 63)" stroke="none" stroke-width="1px">400k</text><text x="318.5447715485673" y="0" dx="0em" dy="0.95em" style="text-anchor: middle; visibility: inherit; font-family: Roboto, sans-serif; font-size: 12px; font-weight: 200;" fill="rgb(50, 49, 63)" stroke="none" stroke-width="1px">600k</text><text x="424.8970320312442" y="0" dx="0em" dy="0.95em" style="text-anchor: middle; visibility: inherit; font-family: Roboto, sans-serif; font-size: 12px; font-weight: 200;" fill="rgb(50, 49, 63)" stroke="none" stroke-width="1px">800k</text><text x="531.249292513921" y="0" dx="0em" dy="0.95em" style="text-anchor: middle; visibility: inherit; font-family: Roboto, sans-serif; font-size: 12px; font-weight: 200;" fill="rgb(50, 49, 63)" stroke="none" stroke-width="1px">1M</text><text x="637.6015529965978" y="0" dx="0em" dy="0.95em" style="text-anchor: middle; visibility: inherit; font-family: Roboto, sans-serif; font-size: 12px; font-weight: 200;" fill="rgb(50, 49, 63)" stroke="none" stroke-width="1px">1.2M</text><text x="743.9538134792747" y="0" dx="0em" dy="0.95em" style="text-anchor: middle; visibility: inherit; font-family: Roboto, sans-serif; font-size: 12px; font-weight: 200;" fill="rgb(50, 49, 63)" stroke="none" stroke-width="1px">1.4M</text><text x="850.3060739619515" y="0" dx="0em" dy="0.95em" style="text-anchor: middle; visibility: inherit; font-family: Roboto, sans-serif; font-size: 12px; font-weight: 200;" fill="rgb(50, 49, 63)" stroke="none" stroke-width="1px">1.6M</text><text x="956.6583344446282" y="0" dx="0em" dy="0.95em" style="text-anchor: middle; visibility: inherit; font-family: Roboto, sans-serif; font-size: 12px; font-weight: 200;" fill="rgb(50, 49, 63)" stroke="none" stroke-width="1px">1.8M</text><text x="1063.010594927305" y="0" dx="0em" dy="0.95em" style="text-anchor: middle; visibility: inherit; font-family: Roboto, sans-serif; font-size: 12px; font-weight: 200;" fill="rgb(50, 49, 63)" stroke="none" stroke-width="1px">2M</text><text x="1169.3628554099819" y="0" dx="0em" dy="0.95em" style="text-anchor: middle; visibility: inherit; font-family: Roboto, sans-serif; font-size: 12px; font-weight: 200;" fill="rgb(50, 49, 63)" stroke="none" stroke-width="1px">2.2M</text><text x="1275.7151158926586" y="0" dx="0em" dy="0.95em" style="text-anchor: middle; visibility: inherit; font-family: Roboto, sans-serif; font-size: 12px; font-weight: 200;" fill="rgb(50, 49, 63)" stroke="none" stroke-width="1px">2.4M</text><text x="1382.0673763753355" y="0" dx="0em" dy="0.95em" style="text-anchor: middle; visibility: inherit; font-family: Roboto, sans-serif; font-size: 12px; font-weight: 200;" fill="rgb(50, 49, 63)" stroke="none" stroke-width="1px">2.6M</text></g><line x1="0" y1="0" x2="1466" y2="0" fill="rgb(0, 0, 0)" stroke="rgb(204, 204, 204)" stroke-width="1px"></line></g></g></g></g></svg>